<svg width="274" height="89" viewBox="0 0 274 89" fill="none" xmlns="http://www.w3.org/2000/svg">
<path d="M0.875 19.8125C0.875 15.3125 3.79167 13.0625 9.625 13.0625C10.625 13.0625 11.5 13.3333 12.25 13.875C13 14.4167 13.4375 15.1667 13.5625 16.125C13.9375 18.6667 14.2708 21.1875 14.5625 23.6875C14.8542 26.1875 15.125 29 15.375 32.125C15.6667 35.2083 15.9375 38.7917 16.1875 42.875C16.4792 46.9167 16.7917 51.75 17.125 57.375C17.125 57.9583 17.2083 58.375 17.375 58.625C17.5833 58.875 17.8125 59 18.0625 59C18.4375 59 18.8125 58.625 19.1875 57.875C20.6042 54.75 22.1875 51.9583 23.9375 49.5C25.6875 47 27.5625 44.8958 29.5625 43.1875C31.5625 41.4375 33.6667 40.125 35.875 39.25C38.125 38.3333 40.4167 37.875 42.75 37.875C45.8333 37.875 48.625 38.75 51.125 40.5C53.625 42.25 55.75 44.7292 57.5 47.9375C59.25 51.1458 60.6042 55.0417 61.5625 59.625C62.5208 64.1667 63 69.25 63 74.875C63 76.4167 62.875 77.6875 62.625 78.6875C62.4167 79.6458 62.0417 80.4167 61.5 81C60.9583 81.5833 60.2083 81.9792 59.25 82.1875C58.2917 82.4375 57.1042 82.5625 55.6875 82.5625C53.7292 82.5625 52.3125 82.1875 51.4375 81.4375C50.6042 80.6875 50.1875 79.5208 50.1875 77.9375C50.1875 74.0208 49.9167 70.3333 49.375 66.875C48.875 63.375 48.1667 60.3125 47.25 57.6875C46.3333 55.0625 45.25 52.9792 44 51.4375C42.7917 49.8958 41.4792 49.125 40.0625 49.125C36.8542 49.125 33.6458 51.7292 30.4375 56.9375C27.2708 62.1458 23.9583 70 20.5 80.5C20.1667 81.4583 19.7917 82.25 19.375 82.875C18.9583 83.5 18.4583 84 17.875 84.375C17.3333 84.75 16.6667 85 15.875 85.125C15.0833 85.2917 14.1458 85.375 13.0625 85.375C10.8542 85.375 9.27083 84.9583 8.3125 84.125C7.39583 83.2917 6.89583 81.9167 6.8125 80C6.5625 72.75 6.10417 65.8333 5.4375 59.25C4.8125 52.625 4.14583 46.6458 3.4375 41.3125C2.77083 35.9375 2.16667 31.3958 1.625 27.6875C1.125 23.9375 0.875 21.3125 0.875 19.8125ZM124.562 66.3125C125.771 65.2708 126.958 64.75 128.125 64.75C128.792 64.75 129.396 64.9167 129.938 65.25C130.479 65.5833 131.083 66.1042 131.75 66.8125C132.375 67.7708 132.812 68.5625 133.062 69.1875C133.354 69.7708 133.5 70.3542 133.5 70.9375C133.5 72.1875 132.875 73.375 131.625 74.5C129.625 76.1667 127.458 77.6667 125.125 79C122.792 80.2917 120.354 81.3958 117.812 82.3125C115.271 83.2292 112.646 83.9167 109.938 84.375C107.229 84.875 104.542 85.125 101.875 85.125C98.5 85.125 95.3333 84.6875 92.375 83.8125C89.4167 82.9792 86.7708 81.7708 84.4375 80.1875C82.1458 78.6042 80.2083 76.7083 78.625 74.5C77.0417 72.25 75.9167 69.7292 75.25 66.9375C74.875 65.7708 74.5208 65.0208 74.1875 64.6875C73.8958 64.3125 73.3958 64.125 72.6875 64.125C71.1458 64.125 69.9583 63.75 69.125 63C68.2917 62.25 67.875 61.1667 67.875 59.75C67.875 59.1667 67.9167 58.7917 68 58.625L68.125 57.375C68.3333 55.875 68.7292 54.7917 69.3125 54.125C69.9375 53.4583 70.8958 53.125 72.1875 53.125H73.125C74.875 53.125 76.1042 52.3125 76.8125 50.6875C78.1042 47.8125 79.75 45.1875 81.75 42.8125C83.75 40.4375 86 38.4167 88.5 36.75C91 35.0417 93.6667 33.7292 96.5 32.8125C99.375 31.8542 102.292 31.375 105.25 31.375C108.333 31.375 111.208 31.8333 113.875 32.75C116.583 33.625 118.938 34.8542 120.938 36.4375C122.938 38.0208 124.5 39.875 125.625 42C126.792 44.125 127.375 46.4167 127.375 48.875C127.375 50.5833 127.042 52.1458 126.375 53.5625C125.708 54.9792 124.75 56.2292 123.5 57.3125C122.25 58.3542 120.729 59.2083 118.938 59.875C117.188 60.5417 115.188 60.9792 112.938 61.1875L91.25 63.375C90.4167 63.375 89.7292 63.5833 89.1875 64C88.6875 64.4167 88.4375 64.9792 88.4375 65.6875C88.4375 66.7708 88.8333 67.8125 89.625 68.8125C90.4583 69.8125 91.5417 70.7083 92.875 71.5C94.25 72.25 95.8125 72.8542 97.5625 73.3125C99.3542 73.7708 101.188 74 103.062 74C104.854 74 106.688 73.8333 108.562 73.5C110.479 73.125 112.354 72.6042 114.188 71.9375C116.062 71.2708 117.875 70.4792 119.625 69.5625C121.375 68.6042 123.021 67.5208 124.562 66.3125ZM110.625 50.1875C111.25 50.0625 111.792 49.7708 112.25 49.3125C112.708 48.8125 112.938 48.2083 112.938 47.5C112.938 46.875 112.708 46.2917 112.25 45.75C111.792 45.2083 111.167 44.7292 110.375 44.3125C109.583 43.8542 108.667 43.5 107.625 43.25C106.583 43 105.479 42.875 104.312 42.875C102.604 42.875 100.854 43.125 99.0625 43.625C97.2708 44.125 95.6458 44.7917 94.1875 45.625C92.7292 46.4167 91.5417 47.3125 90.625 48.3125C89.7083 49.2708 89.25 50.2292 89.25 51.1875C89.25 52.1458 89.8333 52.625 91 52.625C91.7083 52.625 92.8542 52.5417 94.4375 52.375C96.0208 52.2083 97.7708 52.0208 99.6875 51.8125C101.604 51.5625 103.542 51.2917 105.5 51C107.458 50.7083 109.167 50.4375 110.625 50.1875ZM171.375 33.25C169.833 33.25 168.479 33.6667 167.312 34.5C166.146 35.2917 165.146 36.4167 164.312 37.875C163.479 39.2917 162.792 40.9792 162.25 42.9375C161.708 44.8542 161.271 46.9583 160.938 49.25C160.604 51.5417 160.375 53.9375 160.25 56.4375C160.125 58.9375 160.062 61.4583 160.062 64C160.062 67.3333 160.188 70.625 160.438 73.875C160.729 77.0833 160.875 80.0625 160.875 82.8125C160.875 84.6042 160.208 86 158.875 87C157.542 88.0417 155.646 88.5625 153.188 88.5625C152.729 88.5625 152.208 88.5208 151.625 88.4375C151.042 88.3542 150.479 88.1875 149.938 87.9375C149.438 87.6875 148.979 87.3333 148.562 86.875C148.188 86.4583 147.979 85.875 147.938 85.125C147.562 81.4583 147.021 77.7083 146.312 73.875C145.604 70.0417 144.708 66.2292 143.625 62.4375C142.583 58.6042 141.312 54.8125 139.812 51.0625C138.354 47.3125 136.667 43.6458 134.75 40.0625C134.417 39.4375 134.125 38.8542 133.875 38.3125C133.667 37.7708 133.562 37.25 133.562 36.75C133.562 36.125 133.833 35.4583 134.375 34.75C134.958 34 135.667 33.3125 136.5 32.6875C137.375 32.0625 138.312 31.5625 139.312 31.1875C140.354 30.7708 141.354 30.5625 142.312 30.5625C143.896 30.5625 145.292 31.6667 146.5 33.875C147.708 36.0417 148.833 39.5208 149.875 44.3125C150.083 45.1458 150.25 45.7292 150.375 46.0625C150.5 46.3958 150.667 46.5625 150.875 46.5625C151.333 46.5625 151.625 45.8542 151.75 44.4375C152.25 40.4792 153.104 37.0833 154.312 34.25C155.521 31.375 157.021 29.0208 158.812 27.1875C160.646 25.3125 162.729 23.9375 165.062 23.0625C167.438 22.1875 170.042 21.75 172.875 21.75C174.5 21.75 176.146 21.8958 177.812 22.1875C179.479 22.4792 180.979 22.9167 182.312 23.5C183.646 24.0833 184.729 24.7917 185.562 25.625C186.396 26.4583 186.812 27.3958 186.812 28.4375C186.812 29.1875 186.646 30.0833 186.312 31.125C186.021 32.125 185.625 33.1042 185.125 34.0625C184.625 34.9792 184.042 35.7708 183.375 36.4375C182.75 37.0625 182.104 37.375 181.438 37.375C180.688 37.375 179.958 37.1667 179.25 36.75C178.542 36.2917 177.771 35.8125 176.938 35.3125C176.146 34.8125 175.292 34.3542 174.375 33.9375C173.5 33.4792 172.5 33.25 171.375 33.25ZM185.375 65.5625C184.583 55.8125 183.667 46.125 182.625 36.5C181.625 26.875 180.146 17.2708 178.188 7.6875C178.104 7.35417 178.062 7.0625 178.062 6.8125C178.062 6.52083 178.062 6.25 178.062 6C178.062 5.04167 178.25 4.20833 178.625 3.5C179.042 2.79167 179.583 2.20833 180.25 1.75C180.917 1.25 181.667 0.875 182.5 0.625C183.375 0.375 184.292 0.25 185.25 0.25C187.792 0.25 189.542 1.4375 190.5 3.8125C190.917 5.02083 191.333 6.75 191.75 9C192.208 11.25 192.667 13.8542 193.125 16.8125C193.625 19.7708 194.104 23.0208 194.562 26.5625C195.021 30.0625 195.458 33.6667 195.875 37.375C196 38.4167 196.333 38.9375 196.875 38.9375C197.333 38.9375 197.812 38.625 198.312 38C204.396 30 211.604 26 219.938 26C223.062 26 225.979 26.6875 228.688 28.0625C231.396 29.4375 233.75 31.3125 235.75 33.6875C237.75 36.0625 239.312 38.875 240.438 42.125C241.604 45.375 242.188 48.875 242.188 52.625C242.188 56.125 241.625 59.375 240.5 62.375C239.417 65.375 237.896 67.9583 235.938 70.125C233.979 72.2917 231.646 74 228.938 75.25C226.271 76.4583 223.354 77.0625 220.188 77.0625C216.271 77.0625 212.438 76.3125 208.688 74.8125C204.938 73.2708 201.396 71.2083 198.062 68.625C197.688 68.2917 197.292 68.125 196.875 68.125C196.333 68.125 195.833 68.4167 195.375 69C194.708 69.75 194 70.25 193.25 70.5C192.5 70.7083 191.583 70.8125 190.5 70.8125C187.208 70.8125 185.5 69.0625 185.375 65.5625ZM217.75 37.625C216.083 37.625 214.417 38.0208 212.75 38.8125C211.125 39.5625 209.583 40.6458 208.125 42.0625C206.667 43.4792 205.312 45.1875 204.062 47.1875C202.854 49.1458 201.833 51.3333 201 53.75C200.917 53.875 200.854 54.0625 200.812 54.3125C200.771 54.5625 200.75 54.7708 200.75 54.9375C200.75 55.6458 201 56.1875 201.5 56.5625C203 57.8542 204.542 59.0625 206.125 60.1875C207.75 61.3125 209.354 62.2917 210.938 63.125C212.521 63.9583 214.083 64.625 215.625 65.125C217.167 65.5833 218.604 65.8125 219.938 65.8125C222.938 65.8125 225.208 64.9375 226.75 63.1875C228.333 61.4375 229.125 58.8958 229.125 55.5625C229.125 52.9792 228.833 50.6042 228.25 48.4375C227.667 46.2292 226.875 44.3333 225.875 42.75C224.875 41.125 223.667 39.875 222.25 39C220.875 38.0833 219.375 37.625 217.75 37.625ZM266.312 78.875C265.104 78.875 263.958 78.6875 262.875 78.3125C261.833 77.9375 260.917 77.4375 260.125 76.8125C259.333 76.1458 258.708 75.375 258.25 74.5C257.833 73.625 257.625 72.6875 257.625 71.6875C257.625 69.9375 258.312 68.5208 259.688 67.4375C261.104 66.3542 262.958 65.8125 265.25 65.8125C266.333 65.8125 267.375 66.0208 268.375 66.4375C269.417 66.8125 270.312 67.3333 271.062 68C271.854 68.6667 272.479 69.4375 272.938 70.3125C273.396 71.1875 273.625 72.1042 273.625 73.0625C273.625 74.8958 272.958 76.3333 271.625 77.375C270.333 78.375 268.562 78.875 266.312 78.875Z" fill="white"/>
</svg>
